# xmcd
#
# Track frame offsets:
#	150
#	12879
#	22645
#	36078
#	52906
#	67667
#	81393
#	91832
#	100166
#	108861
#	118702
#	130863
#	138855
#	151989
#	161232
#	172856
#	182583
#	194040
#	206502
#	218200
#	228092
#	241795
#	254151
#	263828
#	274567
#	289139
#
# Disc length: 3980 seconds
#
# Revision: 1
# Processed by: cddbd v1.5.2PL0 Copyright (c) Steve Scherf et al.
# Submitted via: audiograbber 1.83.01
#
DISCID=580f8a1a
DTITLE=Willie Nelson - Face Of A Fighter
DYEAR=2005
DGENRE=Country
TTITLE0=I Just Don't Understand
TTITLE1=I Didn't Sleep A Wink
TTITLE2=Undo The Right
TTITLE3=I Let My Mind Wander
TTITLE4=And So Will You My Love
TTITLE5=Home Is Where You're Happy
TTITLE6=I Feel Sorry For Him
TTITLE7=Slow Down Old World
TTITLE8=Why Are You Picking On Me?
TTITLE9=Broken Promises
TTITLE10=I Can't Find The Time
TTITLE11=Things To Remember
TTITLE12=You'll Always Have Someone
TTITLE13=One Step Beyond
TTITLE14=Touch Me
TTITLE15=Half A Man
TTITLE16=I Hope So
TTITLE17=Any Old Arms Won't Do
TTITLE18=End Of Understanding
TTITLE19=Healing Hands Of Time
TTITLE20=Last Letter
TTITLE21=Shelter Of Your Arms
TTITLE22=Ashamed
TTITLE23=Suffer In Silence
TTITLE24=Face Of A Fighter
TTITLE25=Building Heartaches
EXTD=
EXTT0=
EXTT1=
EXTT2=
EXTT3=
EXTT4=
EXTT5=
EXTT6=
EXTT7=
EXTT8=
EXTT9=
EXTT10=
EXTT11=
EXTT12=
EXTT13=
EXTT14=
EXTT15=
EXTT16=
EXTT17=
EXTT18=
EXTT19=
EXTT20=
EXTT21=
EXTT22=
EXTT23=
EXTT24=
EXTT25=
PLAYORDER=
